# xmcd
#
# Track frame offsets:
#	150
#	13722
#	27150
#	42462
#	55957
#	67992
#	79992
#	93582
#	107217
#	120000
#	133035
#	148485
#	162090
#	174600
#	187800
#	200287
#	213375
#	226347
#	240270
#	254840
#	267422
#	280585
#	294290
#
# Disc length: 4090
#
# Revision: 2
# Processed by: cddbd v1.5.1PL0 Copyright (c) Steve Scherf et al.
# Submitted via: ExactAudioCopy v0.95a3
# Normalized: r0:TDELIM( - ),TSWAP
#
DISCID=4a0ff817
DTITLE=Various Artist - The Blues - A Musical Journey [CD2]
DYEAR=2003
DGENRE=
TTITLE0=Skip James - Devil Got My Woman
TTITLE1=Lead Belly - C.C. Rider
TTITLE2=Big Joe Williams - Baby Please Don't Go
TTITLE3=Roosevelt Sykes - Dirty Mother For You (Don't You Know)
TTITLE4=Billie Holiday - Billie's Blues
TTITLE5=Robert Johnson - Cross Road Blues
TTITLE6=Sonny Boy Williamson I - Good Mornin' Little School Girl
TTITLE7=Bukka White - Shake 'Em On Down
TTITLE8=Joe Turner and Pete Johnson - Roll 'Em Pete
TTITLE9=Robert Petway - Catfish Blues
TTITLE10=Count Basie Orchestra With Jimmy Rushing - Going To Chicago Blues
TTITLE11=Big Bill Broonzy - Key To The Highway
TTITLE12=Memphis Minnie - Me And My Chauffeur Blues
TTITLE13=Big Maceo Merriweather - Worried Life Blues
TTITLE14=Tommy McClennon - Cross Cut Saw Blues
TTITLE15=Lionel Hampton Sextet With Dinah Washington - Evil Gal Blues
TTITLE16=Sister Rosetta Tharpe - Strange Things Happening Everyday
TTITLE17=Joe Liggins - Honeydripper Part 1
TTITLE18=Johnny Moore's Three Blazers (Featuring Charles Brown) - Drifting Blues
TTITLE19=Louis Jordan - Let The Good Times Roll
TTITLE20=Arthur 'Big Boy' Crudup - That's All Right Mama
TTITLE21=T-Bone Walker - Call It Stormy Monday
TTITLE22=Johnny Otis Quintette With Little Ester and The Robbins - Double Crossing Blues
EXTD=
EXTT0=
EXTT1=
EXTT2=
EXTT3=
EXTT4=
EXTT5=
EXTT6=
EXTT7=
EXTT8=
EXTT9=
EXTT10=
EXTT11=
EXTT12=
EXTT13=
EXTT14=
EXTT15=
EXTT16=
EXTT17=
EXTT18=
EXTT19=
EXTT20=
EXTT21=
EXTT22=
PLAYORDER=
